<svg xmlns="http://www.w3.org/2000/svg" viewBox="0 0 512 512">
  <defs>
    <linearGradient id="g" x1="0%" y1="0%" x2="100%" y2="100%">
      <stop offset="0%" stop-color="#ff6b35"/>
      <stop offset="50%" stop-color="#dc2f5a"/>
      <stop offset="100%" stop-color="#9b4dca"/>
    </linearGradient>
    <filter id="glow">
      <feGaussianBlur stdDeviation="12" result="coloredBlur"/>
      <feMerge>
        <feMergeNode in="coloredBlur"/>
        <feMergeNode in="SourceGraphic"/>
      </feMerge>
    </filter>
  </defs>
  <!-- Outer Eye Shape -->
  <path d="M256 136c-88 0-160 64-184 120 24 56 96 120 184 120s160-64 184-120c-24-56-96-120-184-120z" fill="none" stroke="url(#g)" stroke-width="32" stroke-linecap="round" filter="url(#glow)"/>
  <!-- Inner S-Eye Element -->
  <path d="M256 186c-38.7 0-70 31.3-70 70 0 10 2 20 6 29 10-20 30-34 54-34 33.1 0 60 26.9 60 60 0 24-14 44-34 54 9 4 19 6 29 6 38.7 0 70-31.3 70-70s-31.3-70-70-70z" fill="url(#g)"/>
</svg>
